<svg width="33" height="32" viewBox="0 0 33 32" fill="none" xmlns="http://www.w3.org/2000/svg">
<path d="M28.875 24V25.3333C28.875 26.8 27.675 28 26.2083 28H7.54167C6.06167 28 4.875 26.8 4.875 25.3333V6.66667C4.875 5.2 6.06167 4 7.54167 4H26.2083C27.675 4 28.875 5.2 28.875 6.66667V8H16.875C15.395 8 14.2083 9.2 14.2083 10.6667V21.3333C14.2083 22.8 15.395 24 16.875 24H28.875ZM16.875 21.3333H30.2083V10.6667H16.875V21.3333ZM22.2083 18C21.1017 18 20.2083 17.1067 20.2083 16C20.2083 14.8933 21.1017 14 22.2083 14C23.315 14 24.2083 14.8933 24.2083 16C24.2083 17.1067 23.315 18 22.2083 18Z" fill="#FDA317"/>
</svg>
