<svg width="29" height="29" viewBox="0 0 29 29" fill="black" xmlns="http://www.w3.org/2000/svg">
<path d="M24.1958 10.2221L15.4458 3.74712C15.0958 3.48462 14.5708 3.48462 14.2208 3.74712L5.51458 10.2221C4.77083 10.7471 4.33333 11.6221 4.33333 12.5409V23.9596C4.33333 24.9659 5.12083 25.7971 6.12708 25.7971L14.8333 25.8409L23.4958 25.7971C24.5458 25.7971 25.3771 24.9659 25.3771 23.9159V12.5409C25.3333 11.6221 24.8958 10.7471 24.1958 10.2221V10.2221ZM19.6458 21.9909C19.6458 22.4721 19.2521 22.8659 18.7708 22.8659C18.2896 22.8659 17.8958 22.4721 17.8958 21.9909V18.2284C17.8958 16.5659 16.5396 15.1659 14.8333 15.1659C13.1271 15.1659 11.7708 16.5221 11.7708 18.2284V21.9909C11.7708 22.4721 11.3771 22.8659 10.8958 22.8659C10.4146 22.8659 10.0208 22.4721 10.0208 21.9909V18.2284C10.0208 15.5596 12.1646 13.4159 14.8333 13.4159C17.5021 13.4159 19.6458 15.5596 19.6458 18.2284V21.9909Z" fill="#707070"/>
</svg>
