<svg width="16" height="16" viewBox="0 0 16 16" fill="none" xmlns="http://www.w3.org/2000/svg">
<path fill-rule="evenodd" clip-rule="evenodd" d="M13.5972 0C13.2816 0 12.9692 0.0621507 12.6777 0.182904C12.3861 0.303658 12.1212 0.480649 11.8981 0.703771L7.07576 5.52614C6.70914 5.89241 6.45869 6.35939 6.35673 6.8675L5.91111 9.09812C5.85595 9.37422 5.94242 9.65962 6.14155 9.85867C6.34067 10.0577 6.6261 10.1441 6.90218 10.0888L9.13197 9.64254C9.64003 9.5409 10.1065 9.29158 10.4734 8.92466L15.2962 4.10188C15.5194 3.87875 15.6963 3.61387 15.8171 3.32234C15.9379 3.03082 16 2.71836 16 2.40282C16 2.08728 15.9379 1.77483 15.8171 1.4833C15.6963 1.19178 15.5194 0.926894 15.2962 0.703771C15.0731 0.480648 14.8082 0.303657 14.5167 0.182904C14.2252 0.0621507 13.9127 0 13.5972 0ZM13.3222 1.73893C13.4094 1.70281 13.5028 1.68423 13.5972 1.68423C13.6915 1.68423 13.785 1.70281 13.8722 1.73893C13.9594 1.77504 14.0386 1.82797 14.1053 1.8947C14.172 1.96143 14.225 2.04064 14.2611 2.12783C14.2972 2.21501 14.3158 2.30845 14.3158 2.40282C14.3158 2.49719 14.2972 2.59064 14.2611 2.67782C14.225 2.765 14.172 2.84422 14.1053 2.91095L13.3423 3.6739L12.3259 2.65789L13.0891 1.8947C13.1558 1.82797 13.235 1.77504 13.3222 1.73893ZM11.1349 3.84882L12.1514 4.86483L9.28252 7.73373C9.15095 7.8653 8.98409 7.95453 8.80167 7.99102L7.81014 8.18947L8.00804 7.19886C8.04465 7.01673 8.1344 6.84917 8.26585 6.7179L11.1349 3.84882Z" fill="#999999"/>
<path d="M1.93088 3.61495C2.0888 3.45702 2.303 3.3683 2.52634 3.3683H5.05268C5.51776 3.3683 5.89479 2.99127 5.89479 2.52618C5.89479 2.0611 5.51776 1.68407 5.05268 1.68407H2.52634C1.85631 1.68407 1.21373 1.95024 0.739947 2.42402C0.266167 2.8978 0 3.54038 0 4.21041V13.4737C0 14.1437 0.266167 14.7863 0.739947 15.26C1.21373 15.7338 1.85631 16 2.52634 16H11.7896C12.4596 16 13.1022 15.7338 13.576 15.26C14.0498 14.7863 14.3159 14.1437 14.3159 13.4737V10.9473C14.3159 10.4822 13.9389 10.1052 13.4738 10.1052C13.0087 10.1052 12.6317 10.4822 12.6317 10.9473V13.4737C12.6317 13.697 12.543 13.9112 12.385 14.0691C12.2271 14.227 12.0129 14.3158 11.7896 14.3158H2.52634C2.303 14.3158 2.0888 14.227 1.93088 14.0691C1.77295 13.9112 1.68423 13.697 1.68423 13.4737V4.21041C1.68423 3.98707 1.77295 3.77287 1.93088 3.61495Z" fill="#999999"/>
</svg>
