<svg width="29" height="29" viewBox="0 0 29 29" fill="none" xmlns="http://www.w3.org/2000/svg">
<path d="M7.47427 10.6263C7.47427 11.5037 7.6471 12.3726 7.98289 13.1832C8.31868 13.9939 8.81085 14.7305 9.4313 15.3509C10.0518 15.9714 10.7883 16.4636 11.599 16.7994C12.4097 17.1351 13.2785 17.308 14.156 17.308C15.0334 17.308 15.9023 17.1351 16.713 16.7994C17.5236 16.4636 18.2602 15.9714 18.8807 15.3509C19.5011 14.7305 19.9933 13.9939 20.3291 13.1832C20.6649 12.3726 20.8377 11.5037 20.8377 10.6263C20.8377 9.7488 20.6649 8.87994 20.3291 8.06928C19.9933 7.25861 19.5011 6.52203 18.8807 5.90157C18.2602 5.28112 17.5236 4.78895 16.713 4.45316C15.9023 4.11737 15.0334 3.94454 14.156 3.94454C13.2785 3.94454 12.4097 4.11737 11.599 4.45316C10.7883 4.78895 10.0518 5.28112 9.4313 5.90157C8.81085 6.52203 8.31868 7.25861 7.98289 8.06928C7.6471 8.87994 7.47427 9.7488 7.47427 10.6263Z" fill="#707070"/>
<path d="M14.156 18.1283C12.1522 18.1283 10.2683 17.3479 8.8513 15.9309C7.43435 14.514 6.65396 12.63 6.65396 10.6263C6.65396 8.62251 7.43435 6.73853 8.8513 5.32157C10.2683 3.90462 12.1522 3.12423 14.156 3.12423C16.1597 3.12423 18.0437 3.90462 19.4607 5.32157C20.8776 6.73853 21.658 8.62251 21.658 10.6263C21.658 12.63 20.8776 14.514 19.4607 15.9309C18.0437 17.3479 16.1597 18.1283 14.156 18.1283ZM14.156 4.76485C10.924 4.76485 8.29459 7.39423 8.29459 10.6263C8.29459 13.8583 10.924 16.4877 14.156 16.4877C17.388 16.4877 20.0174 13.8583 20.0174 10.6263C20.0174 7.39423 17.388 4.76485 14.156 4.76485Z" fill="#707070"/>
<path d="M20.2922 18.8455H8.09581C6.17628 18.8455 4.62015 20.4017 4.62015 22.3212C4.62015 24.2407 6.17628 25.7968 8.09581 25.7968H20.2919C22.2115 25.7968 23.7676 24.2407 23.7676 22.3212C23.7679 20.4017 22.2118 18.8455 20.2922 18.8455ZM15.8989 23.1109H12.3981C11.945 23.1109 11.5778 22.7436 11.5778 22.2906C11.5778 21.8375 11.945 21.4702 12.3981 21.4702H15.8986C16.3517 21.4702 16.7189 21.8375 16.7189 22.2906C16.7189 22.7436 16.3517 23.1109 15.8989 23.1109Z" fill="#707070"/>
</svg>
