<svg width="29" height="29" viewBox="0 0 29 29" fill="none" xmlns="http://www.w3.org/2000/svg">
<path d="M10.1516 23.1683C9.18267 23.1683 8.40189 23.9491 8.40189 24.918C8.40189 25.8869 9.18267 26.6677 10.1516 26.6677C11.1205 26.6677 11.9013 25.8869 11.9013 24.918C11.9013 23.9491 11.1205 23.1683 10.1516 23.1683Z" fill="#707070"/>
<path d="M22.4042 23.1683C21.4353 23.1683 20.6545 23.9491 20.6545 24.918C20.6545 25.8869 21.4353 26.6677 22.4042 26.6677C23.3732 26.6677 24.1539 25.8869 24.1539 24.918C24.1539 23.9491 23.3685 23.1683 22.4042 23.1683Z" fill="#707070"/>
<path d="M26.1294 5.57716C25.6826 5.06918 25.0664 4.79638 24.3985 4.79638H6.86854L6.80739 4.43891C6.65217 3.16426 5.53274 2.17182 4.25809 2.17182H3.15276C2.6683 2.17182 2.27791 2.56221 2.27791 3.04667C2.27791 3.53114 2.6683 3.92153 3.15276 3.92153H4.25338C4.63437 3.92153 5.02476 4.26959 5.07179 4.6929L5.91843 9.57515L7.40474 20.0216C7.55995 21.2963 8.66528 22.2934 9.93052 22.2934H24.1539C24.6384 22.2934 25.0288 21.903 25.0288 21.4186C25.0288 20.9341 24.6384 20.5437 24.1539 20.5437H9.92582C9.55424 20.5437 9.18737 20.2004 9.13563 19.7912L8.98982 18.7705L22.8699 17.9145C24.1304 17.9145 25.2404 16.9173 25.3863 15.6897L26.7738 7.80663C26.8726 6.9647 26.6421 6.15099 26.1294 5.57716Z" fill="#707070"/>
</svg>
