<svg width="14" height="15" viewBox="0 0 14 15" fill="none" xmlns="http://www.w3.org/2000/svg">
<path d="M4.69725 11.5102C4.877 11.5102 5.04729 11.5465 5.20812 11.6192C5.36896 11.6919 5.5085 11.7931 5.62676 11.9228C5.74502 12.0526 5.83963 12.2057 5.91058 12.3822C5.98154 12.5587 6.01702 12.7455 6.01702 12.9428C6.01702 13.14 5.98154 13.3269 5.91058 13.5034C5.83963 13.6798 5.74502 13.833 5.62676 13.9627C5.5085 14.0925 5.36896 14.1963 5.20812 14.2742C5.04729 14.352 4.877 14.3909 4.69725 14.3909C4.50803 14.3909 4.33301 14.352 4.17218 14.2742C4.01134 14.1963 3.8718 14.0925 3.75354 13.9627C3.63528 13.833 3.54067 13.6798 3.46972 13.5034C3.39876 13.3269 3.36328 13.14 3.36328 12.9428C3.36328 12.7455 3.39876 12.5587 3.46972 12.3822C3.54067 12.2057 3.63528 12.0526 3.75354 11.9228C3.8718 11.7931 4.01134 11.6919 4.17218 11.6192C4.33301 11.5465 4.50803 11.5102 4.69725 11.5102ZM10.6007 11.5413C10.7805 11.5413 10.9531 11.5777 11.1187 11.6503C11.2843 11.723 11.4262 11.8242 11.5444 11.954C11.6627 12.0837 11.7573 12.2369 11.8283 12.4133C11.8992 12.5898 11.9347 12.7767 11.9347 12.9739C11.9347 13.1712 11.8992 13.358 11.8283 13.5345C11.7573 13.711 11.6627 13.8641 11.5444 13.9939C11.4262 14.1236 11.2843 14.2274 11.1187 14.3053C10.9531 14.3832 10.7805 14.4221 10.6007 14.4221C10.421 14.4221 10.2507 14.3832 10.0899 14.3053C9.92902 14.2274 9.78947 14.1236 9.67122 13.9939C9.55296 13.8641 9.45835 13.711 9.38739 13.5345C9.31644 13.358 9.28096 13.1712 9.28096 12.9739C9.28096 12.7767 9.31644 12.5898 9.38739 12.4133C9.45835 12.2369 9.55296 12.0837 9.67122 11.954C9.78947 11.8242 9.92902 11.723 10.0899 11.6503C10.2507 11.5777 10.421 11.5413 10.6007 11.5413ZM12.9848 2.69666C13.2497 2.69666 13.4555 2.73559 13.6021 2.81344C13.7488 2.8913 13.8529 2.98733 13.9143 3.10152C13.9758 3.21571 14.0042 3.33769 13.9995 3.46745C13.9948 3.59722 13.9782 3.70881 13.9498 3.80224C13.9214 3.89567 13.8599 4.08772 13.7653 4.37839C13.6707 4.66906 13.569 4.98828 13.4602 5.33605C13.3514 5.68381 13.2426 6.02898 13.1338 6.37156C13.025 6.71414 12.9375 6.98404 12.8713 7.18128C12.7483 7.59653 12.5946 7.8846 12.4101 8.04551C12.2256 8.20642 11.9962 8.28687 11.7218 8.28687H11.2251H10.3169H9.12486H7.7909H4.27151L4.47019 9.68832H11.6367C12.0908 9.68832 12.3179 9.90113 12.3179 10.3268C12.3179 10.5344 12.2729 10.716 12.183 10.8718C12.0932 11.0275 11.9158 11.1001 11.6509 11.0898H10.9697H9.66412H8.01796H6.3576H4.98107H4.21475C4.02553 11.0898 3.86707 11.043 3.73935 10.9496C3.61163 10.8562 3.5052 10.7342 3.42005 10.5837C3.3349 10.4332 3.26631 10.2697 3.21428 10.0932C3.16224 9.9167 3.12204 9.7506 3.09365 9.59489C3.08419 9.5326 3.05818 9.38207 3.0156 9.14331C2.97303 8.90454 2.921 8.60609 2.8595 8.24794C2.79801 7.88979 2.72942 7.49012 2.65373 7.04893C2.57804 6.60773 2.50236 6.16394 2.42667 5.71755C2.24692 4.66906 2.04351 3.50119 1.81646 2.21394H0.752127C0.610216 2.21394 0.491957 2.17501 0.39735 2.09715C0.302743 2.01929 0.224692 1.92586 0.163197 1.81686C0.101703 1.70786 0.0591295 1.59107 0.0354777 1.4665C0.0118259 1.34193 0 1.22773 0 1.12392C0 0.916302 0.0638598 0.745014 0.191579 0.61006C0.319299 0.475106 0.491957 0.41282 0.709554 0.423201H2.14285C2.33207 0.423201 2.48344 0.454344 2.59697 0.516631C2.7105 0.578917 2.80037 0.656775 2.8666 0.750205C2.93282 0.843635 2.98013 0.93966 3.00851 1.03828C3.03689 1.1369 3.06054 1.22254 3.07946 1.29521C3.09838 1.37826 3.11731 1.49505 3.13623 1.64557C3.15515 1.7961 3.17407 1.94922 3.19299 2.10494C3.22137 2.2918 3.24976 2.48904 3.27814 2.69666H12.9848V2.69666ZM12.4598 4.08253L3.57615 4.05139L4.07284 6.86985L11.4948 6.88542L12.4598 4.08253Z" fill="#BCBCBC"/>
</svg>
