<svg width="33" height="32" viewBox="0 0 33 32" fill="none" xmlns="http://www.w3.org/2000/svg">
<g clip-path="url(#clip0_84_224)">
<path d="M25.9583 3.99998H20.385C19.825 2.45331 18.3583 1.33331 16.625 1.33331C14.8917 1.33331 13.425 2.45331 12.865 3.99998H7.29167C5.825 3.99998 4.625 5.19998 4.625 6.66665V25.3333C4.625 26.8 5.825 28 7.29167 28H25.9583C27.425 28 28.625 26.8 28.625 25.3333V6.66665C28.625 5.19998 27.425 3.99998 25.9583 3.99998ZM16.625 3.99998C17.3583 3.99998 17.9583 4.59998 17.9583 5.33331C17.9583 6.06665 17.3583 6.66665 16.625 6.66665C15.8917 6.66665 15.2917 6.06665 15.2917 5.33331C15.2917 4.59998 15.8917 3.99998 16.625 3.99998ZM19.2917 22.6666H9.95833V20H19.2917V22.6666ZM23.2917 17.3333H9.95833V14.6666H23.2917V17.3333ZM23.2917 12H9.95833V9.33331H23.2917V12Z" fill="#FDA317"/>
</g>
<defs>
<clipPath id="clip0_84_224">
<rect width="32" height="32" fill="white" transform="translate(0.625)"/>
</clipPath>
</defs>
</svg>
