<svg width="33" height="32" viewBox="0 0 33 32" fill="none" xmlns="http://www.w3.org/2000/svg">
<path d="M5.125 25C5.125 25.8841 5.49375 26.7319 6.15013 27.357C6.8065 27.9822 7.69674 28.3334 8.625 28.3334C9.55326 28.3334 10.4435 27.9822 11.0999 27.357C11.7563 26.7319 12.125 25.8841 12.125 25C12.125 24.116 11.7563 23.2681 11.0999 22.643C10.4435 22.0179 9.55326 21.6667 8.625 21.6667C7.69674 21.6667 6.8065 22.0179 6.15013 22.643C5.49375 23.2681 5.125 24.116 5.125 25Z" fill="#FDA317"/>
<path d="M29.1028 11.5604L22.1147 8.08853V6.88887C22.1147 4.93331 20.3156 3.33331 18.1167 3.33331H6.12294C3.92407 3.33331 2.125 4.93331 2.125 6.88887V21.1111C2.125 22.1178 2.60182 23.0302 3.36445 23.6787C4.05297 21.6776 6.14608 20.2222 8.62165 20.2222C11.4891 20.2222 13.8434 22.1749 14.0959 24.6666H18.1396C18.3922 22.1749 20.7464 20.2222 23.6139 20.2222C26.0895 20.2222 28.1826 21.6776 28.8711 23.6787C29.6337 23.0302 30.1106 22.1178 30.1106 21.1111V13.3307C30.2052 12.6349 29.8305 11.9219 29.1028 11.5604ZM27.1121 15.7778C27.1121 16.2666 26.6623 16.6666 26.1126 16.6666H22.1147C21.565 16.6666 21.1152 16.2666 21.1152 15.7778V12.2222C21.1152 11.7333 21.565 11.3333 22.1147 11.3333C22.6644 11.3333 23.1142 11.7333 23.1142 12.2222V14.8889H26.1126C26.6623 14.8889 27.1121 15.2889 27.1121 15.7778Z" fill="#FDA317"/>
<path d="M20.125 25C20.125 25.8841 20.4937 26.7319 21.1501 27.357C21.8065 27.9822 22.6967 28.3334 23.625 28.3334C24.5533 28.3334 25.4435 27.9822 26.0999 27.357C26.7563 26.7319 27.125 25.8841 27.125 25C27.125 24.116 26.7563 23.2681 26.0999 22.643C25.4435 22.0179 24.5533 21.6667 23.625 21.6667C22.6967 21.6667 21.8065 22.0179 21.1501 22.643C20.4937 23.2681 20.125 24.116 20.125 25Z" fill="#FDA317"/>
</svg>
