<svg width="20" height="20" viewBox="0 0 20 20" fill="none" xmlns="http://www.w3.org/2000/svg">
<path d="M20 0H0V20H20V0Z" fill="white" fill-opacity="0.01"/>
<path d="M4.10746 13.6489C2.59943 14.1013 1.66669 14.7263 1.66669 15.4167C1.66669 16.7974 5.39765 17.9167 10 17.9167C14.6024 17.9167 18.3334 16.7974 18.3334 15.4167C18.3334 14.7263 17.4006 14.1013 15.8926 13.6489" stroke="#333333" stroke-width="2" stroke-linecap="round" stroke-linejoin="round"/>
<path d="M9.99998 14.5834C9.99998 14.5834 15.4166 11.0434 15.4166 6.95077C15.4166 4.03245 12.9915 1.66669 9.99998 1.66669C7.00844 1.66669 4.58331 4.03245 4.58331 6.95077C4.58331 11.0434 9.99998 14.5834 9.99998 14.5834Z" fill="#333333" stroke="#333333" stroke-width="2" stroke-linejoin="round"/>
<path d="M10 9.16667C11.1506 9.16667 12.0834 8.23392 12.0834 7.08333C12.0834 5.93275 11.1506 5 10 5C8.84944 5 7.91669 5.93275 7.91669 7.08333C7.91669 8.23392 8.84944 9.16667 10 9.16667Z" fill="white" stroke="white" stroke-width="2" stroke-linejoin="round"/>
</svg>
