<svg width="29" height="28" viewBox="0 0 29 28" fill="none" xmlns="http://www.w3.org/2000/svg">
<path d="M7.47424 10.2041C7.47424 11.0816 7.64707 11.9505 7.98286 12.7611C8.31865 13.5718 8.81082 14.3084 9.43127 14.9288C10.0517 15.5493 10.7883 16.0414 11.599 16.3772C12.4096 16.713 13.2785 16.8858 14.156 16.8858C15.0334 16.8858 15.9023 16.713 16.7129 16.3772C17.5236 16.0414 18.2602 15.5493 18.8806 14.9288C19.5011 14.3084 19.9933 13.5718 20.3291 12.7611C20.6649 11.9505 20.8377 11.0816 20.8377 10.2041C20.8377 9.32668 20.6649 8.45781 20.3291 7.64715C19.9933 6.83649 19.5011 6.0999 18.8806 5.47945C18.2602 4.85899 17.5236 4.36682 16.7129 4.03103C15.9023 3.69524 15.0334 3.52242 14.156 3.52242C13.2785 3.52242 12.4096 3.69524 11.599 4.03103C10.7883 4.36682 10.0517 4.85899 9.43127 5.47945C8.81082 6.0999 8.31865 6.83649 7.98286 7.64715C7.64707 8.45781 7.47424 9.32668 7.47424 10.2041Z" fill="#EB4E46"/>
<path d="M14.156 17.7062C12.1522 17.7062 10.2682 16.9258 8.85127 15.5088C7.43432 14.0919 6.65393 12.2079 6.65393 10.2041C6.65393 8.20038 7.43432 6.3164 8.85127 4.89945C10.2682 3.48249 12.1522 2.7021 14.156 2.7021C16.1597 2.7021 18.0437 3.48249 19.4606 4.89945C20.8776 6.3164 21.658 8.20038 21.658 10.2041C21.658 12.2079 20.8776 14.0919 19.4606 15.5088C18.0437 16.9258 16.1597 17.7062 14.156 17.7062ZM14.156 4.34273C10.9239 4.34273 8.29456 6.9721 8.29456 10.2041C8.29456 13.4362 10.9239 16.0655 14.156 16.0655C17.388 16.0655 20.0174 13.4362 20.0174 10.2041C20.0174 6.9721 17.388 4.34273 14.156 4.34273Z" fill="#EB4E46"/>
<path d="M20.2922 18.4234H8.09578C6.17625 18.4234 4.62012 19.9795 4.62012 21.8991C4.62012 23.8186 6.17625 25.3747 8.09578 25.3747H20.2919C22.2114 25.3747 23.7676 23.8186 23.7676 21.8991C23.7679 19.9795 22.2117 18.4234 20.2922 18.4234ZM15.8989 22.6888H12.398C11.945 22.6888 11.5777 22.3215 11.5777 21.8684C11.5777 21.4154 11.945 21.0481 12.398 21.0481H15.8986C16.3517 21.0481 16.7189 21.4154 16.7189 21.8684C16.7189 22.3215 16.3517 22.6888 15.8989 22.6888Z" fill="#EB4E46"/>
</svg>
