<svg width="29" height="28" viewBox="0 0 29 28" fill="none" xmlns="http://www.w3.org/2000/svg">
<path d="M10.1516 22.7462C9.18264 22.7462 8.40186 23.527 8.40186 24.4959C8.40186 25.4648 9.18264 26.2456 10.1516 26.2456C11.1205 26.2456 11.9013 25.4648 11.9013 24.4959C11.9013 23.527 11.1205 22.7462 10.1516 22.7462Z" fill="#EB4E46"/>
<path d="M22.4042 22.7462C21.4353 22.7462 20.6545 23.527 20.6545 24.4959C20.6545 25.4648 21.4353 26.2456 22.4042 26.2456C23.3731 26.2456 24.1539 25.4648 24.1539 24.4959C24.1539 23.527 23.3684 22.7462 22.4042 22.7462Z" fill="#EB4E46"/>
<path d="M26.1294 5.15505C25.6826 4.64707 25.0664 4.37427 24.3985 4.37427H6.86852L6.80737 4.0168C6.65216 2.74215 5.53272 1.74971 4.25807 1.74971H3.15275C2.66828 1.74971 2.27789 2.1401 2.27789 2.62456C2.27789 3.10902 2.66828 3.49942 3.15275 3.49942H4.25337C4.63435 3.49942 5.02474 3.84748 5.07178 4.27079L5.91841 9.15304L7.40472 19.5995C7.55994 20.8742 8.66526 21.8713 9.93051 21.8713H24.1539C24.6384 21.8713 25.0288 21.4809 25.0288 20.9965C25.0288 20.512 24.6384 20.1216 24.1539 20.1216H9.9258C9.55422 20.1216 9.18735 19.7783 9.13561 19.3691L8.9898 18.3484L22.8699 17.4924C24.1304 17.4924 25.2404 16.4952 25.3862 15.2676L26.7738 7.38452C26.8726 6.54259 26.6421 5.72888 26.1294 5.15505Z" fill="#EB4E46"/>
</svg>
