<svg width="29" height="28" viewBox="0 0 29 28" fill="none" xmlns="http://www.w3.org/2000/svg">
<path d="M24.1958 9.8L15.4458 3.325C15.0958 3.0625 14.5708 3.0625 14.2208 3.325L5.51458 9.8C4.77083 10.325 4.33333 11.2 4.33333 12.1188V23.5375C4.33333 24.5438 5.12083 25.375 6.12708 25.375L14.8333 25.4188L23.4958 25.375C24.5458 25.375 25.3771 24.5438 25.3771 23.4938V12.1188C25.3333 11.2 24.8958 10.325 24.1958 9.8ZM19.6458 21.5688C19.6458 22.05 19.2521 22.4438 18.7708 22.4438C18.2896 22.4438 17.8958 22.05 17.8958 21.5688V17.8063C17.8958 16.1438 16.5396 14.7438 14.8333 14.7438C13.1271 14.7438 11.7708 16.1 11.7708 17.8063V21.5688C11.7708 22.05 11.3771 22.4438 10.8958 22.4438C10.4146 22.4438 10.0208 22.05 10.0208 21.5688V17.8063C10.0208 15.1375 12.1646 12.9938 14.8333 12.9938C17.5021 12.9938 19.6458 15.1375 19.6458 17.8063V21.5688Z" fill="#EB4E46"/>
</svg>
