<svg width="33" height="32" viewBox="0 0 33 32" fill="none" xmlns="http://www.w3.org/2000/svg">
<path d="M25.7083 3.99998H20.135C19.575 2.45331 18.1083 1.33331 16.375 1.33331C14.6417 1.33331 13.175 2.45331 12.615 3.99998H7.04167C5.575 3.99998 4.375 5.19998 4.375 6.66665V25.3333C4.375 26.8 5.575 28 7.04167 28H25.7083C27.175 28 28.375 26.8 28.375 25.3333V6.66665C28.375 5.19998 27.175 3.99998 25.7083 3.99998ZM16.375 3.99998C17.1083 3.99998 17.7083 4.59998 17.7083 5.33331C17.7083 6.06665 17.1083 6.66665 16.375 6.66665C15.6417 6.66665 15.0417 6.06665 15.0417 5.33331C15.0417 4.59998 15.6417 3.99998 16.375 3.99998ZM13.7083 22.6666L8.375 17.3333L10.255 15.4533L13.7083 18.8933L22.495 10.1066L24.375 12L13.7083 22.6666Z" fill="#FDA317"/>
</svg>
